<?xml version="1.0" encoding="iso-8859-1"?>
<!-- Uploaded to: SVG Repo, www.svgrepo.com, Generator: SVG Repo Mixer Tools -->
<!DOCTYPE svg PUBLIC "-//W3C//DTD SVG 1.1//EN" "http://www.w3.org/Graphics/SVG/1.1/DTD/svg11.dtd">
<svg height="800px" width="800px" version="1.1" id="Capa_1" xmlns="http://www.w3.org/2000/svg" xmlns:xlink="http://www.w3.org/1999/xlink" 
	 viewBox="0 0 140.253 140.253" xml:space="preserve">
<g>
	<g>
		<g>
			<path style="fill:#FFFFFF;" d="M15.497,44.642v11.491h72.935h12.716h14.693c6.461,0,11.696,5.241,11.696,11.696v2.16v1.85H88.432
				H2.787v30.567c0,6.46,5.235,11.696,11.696,11.696h73.948h27.409c6.461,0,11.696-5.236,11.696-11.696V86.906h1.019
				c6.456,0,11.697-5.235,11.697-11.696v-5.22V44.642h-39.105H15.497z"/>
		</g>
		<g>
			<path style="fill:#F0505D;" d="M128.556,28.936h-27.408H27.194c-6.455,0-11.697,5.241-11.697,11.696v4.01h85.65h39.105v-4.01
				C140.253,34.177,135.012,28.936,128.556,28.936z"/>
		</g>
		<g>
			<path style="fill:#F0505D;" d="M127.537,71.839v-1.85v-2.16c0-6.455-5.235-11.696-11.696-11.696h-14.693H88.432H15.497h-1.014
				c-6.461,0-11.696,5.241-11.696,11.696v4.01h85.644H127.537z"/>
		</g>
	</g>
	<g>
		<g>
			<g>
				<path style="fill:#231F20;" d="M113.612,112.43H12.253C5.497,112.43,0,106.933,0,100.177V65.602
					c0-6.757,5.497-12.254,12.253-12.254h101.359c6.756,0,12.252,5.497,12.252,12.254v34.575
					C125.864,106.933,120.368,112.43,113.612,112.43z M12.253,54.462c-6.142,0-11.139,4.997-11.139,11.14v34.575
					c0,6.142,4.997,11.139,11.139,11.139h101.359c6.142,0,11.139-4.997,11.139-11.139V65.602c0-6.143-4.997-11.14-11.139-11.14
					H12.253z"/>
			</g>
			<g>
				<path style="fill:#231F20;" d="M86.205,112.43c-0.308,0-0.558-0.25-0.558-0.558V53.905c0-0.308,0.25-0.557,0.558-0.557
					c0.308,0,0.557,0.249,0.557,0.557v57.968C86.762,112.18,86.513,112.43,86.205,112.43z"/>
			</g>
			<g>
				<g>
					<path style="fill:#231F20;" d="M78.662,107.543c-0.308,0-0.558-0.25-0.558-0.558V96.597c0-0.308,0.25-0.557,0.558-0.557
						c0.308,0,0.557,0.249,0.557,0.557v10.388C79.219,107.293,78.97,107.543,78.662,107.543z"/>
				</g>
				<g>
					<path style="fill:#231F20;" d="M75.646,107.543c-0.308,0-0.558-0.25-0.558-0.558V96.597c0-0.308,0.25-0.557,0.558-0.557
						s0.557,0.249,0.557,0.557v10.388C76.203,107.293,75.954,107.543,75.646,107.543z"/>
				</g>
				<g>
					<path style="fill:#231F20;" d="M71.228,107.543c-0.308,0-0.557-0.25-0.557-0.558V96.597c0-0.308,0.249-0.557,0.557-0.557
						c0.308,0,0.557,0.249,0.557,0.557v10.388C71.784,107.293,71.535,107.543,71.228,107.543z"/>
				</g>
				<g>
					<path style="fill:#231F20;" d="M68.205,107.543c-0.308,0-0.557-0.25-0.557-0.558V96.597c0-0.308,0.249-0.557,0.557-0.557
						c0.309,0,0.558,0.249,0.558,0.557v10.388C68.763,107.293,68.514,107.543,68.205,107.543z"/>
				</g>
				<g>
					<path style="fill:#231F20;" d="M61.126,107.543c-0.308,0-0.557-0.25-0.557-0.558V96.597c0-0.308,0.249-0.557,0.557-0.557
						c0.308,0,0.557,0.249,0.557,0.557v10.388C61.683,107.293,61.434,107.543,61.126,107.543z"/>
				</g>
				<g>
					<path style="fill:#231F20;" d="M57.388,107.543c-0.308,0-0.557-0.25-0.557-0.558V96.597c0-0.308,0.249-0.557,0.557-0.557
						c0.308,0,0.558,0.249,0.558,0.557v10.388C57.945,107.293,57.695,107.543,57.388,107.543z"/>
				</g>
				<g>
					<path style="fill:#231F20;" d="M47.204,107.407c-0.309,0-0.558-0.249-0.558-0.557V96.463c0-0.308,0.249-0.557,0.558-0.557
						c0.308,0,0.557,0.249,0.557,0.557v10.387C47.761,107.158,47.512,107.407,47.204,107.407z"/>
				</g>
				<g>
					<path style="fill:#231F20;" d="M49.322,107.407c-0.308,0-0.557-0.249-0.557-0.557V96.463c0-0.308,0.249-0.557,0.557-0.557
						c0.308,0,0.557,0.249,0.557,0.557v10.387C49.879,107.158,49.63,107.407,49.322,107.407z"/>
				</g>
				<g>
					<path style="fill:#231F20;" d="M52.967,107.407c-0.308,0-0.557-0.249-0.557-0.557V96.463c0-0.308,0.249-0.557,0.557-0.557
						c0.308,0,0.558,0.249,0.558,0.557v10.387C53.524,107.158,53.274,107.407,52.967,107.407z"/>
				</g>
			</g>
			<g>
				<path style="fill:#231F20;" d="M10.591,59.147h0.639l2.598,5.777h-0.639l-1.036-2.298H9.669l-1.036,2.298h-0.64L10.591,59.147z
					 M10.915,59.859l-0.996,2.2h1.982L10.915,59.859z"/>
				<path style="fill:#231F20;" d="M14.476,59.147h0.591v5.777h-0.591V59.147z"/>
				<path style="fill:#231F20;" d="M16.28,59.147h1.894c1.101,0,1.845,0.72,1.845,1.797c0,0.897-0.51,1.544-1.326,1.739l1.764,2.241
					h-0.785l-1.724-2.184h-1.075v2.184H16.28V59.147z M18.174,62.172c0.736,0,1.23-0.493,1.23-1.229c0-0.737-0.486-1.23-1.23-1.23
					h-1.302v2.459H18.174z"/>
				<path style="fill:#231F20;" d="M25.005,59.713h-1.958v-0.566h4.499v0.566h-1.95v5.211h-0.591V59.713z"/>
				<path style="fill:#231F20;" d="M28.274,59.147h0.591v5.777h-0.591V59.147z"/>
				<path style="fill:#231F20;" d="M35.347,63.548c-0.525,0.874-1.48,1.456-2.572,1.456c-1.659,0-3.019-1.343-3.019-2.993
					c0-1.586,1.359-2.929,3.019-2.929c1.084,0,2.03,0.582,2.556,1.424h-0.735c-0.438-0.51-1.085-0.834-1.82-0.834
					c-1.336,0-2.403,1.068-2.403,2.339c0,1.335,1.067,2.403,2.403,2.403c0.744,0,1.407-0.332,1.836-0.866H35.347z"/>
				<path style="fill:#231F20;" d="M36.319,59.147h0.591v2.726l2.508-2.726h0.736l-2.29,2.541l2.768,3.236h-0.736l-2.419-2.8
					l-0.566,0.631v2.169h-0.591V59.147z"/>
				<path style="fill:#231F20;" d="M41.28,59.147h3.35v0.566h-2.759v1.618h2.597v0.566h-2.597v2.46h2.759v0.566h-3.35V59.147z"/>
				<path style="fill:#231F20;" d="M47.236,59.713h-1.958v-0.566h4.499v0.566h-1.95v5.211h-0.591V59.713z"/>
			</g>
			<g>
				<path style="fill:#231F20;" d="M90.136,63.284h0.986c0.41,0,0.681,0.263,0.681,0.658c0,0.204-0.093,0.383-0.236,0.502
					c0.26,0.147,0.438,0.421,0.438,0.742c0,0.515-0.352,0.858-0.882,0.858h-0.986V63.284z M91.122,64.328
					c0.232,0,0.387-0.154,0.387-0.386c0-0.232-0.154-0.388-0.387-0.388h-0.703v0.773H91.122z M91.122,65.775
					c0.353,0,0.588-0.236,0.588-0.589c0-0.352-0.235-0.588-0.588-0.588h-0.703v1.177H91.122z"/>
				<path style="fill:#231F20;" d="M95.192,64.645c0,0.789-0.646,1.431-1.438,1.431c-0.793,0-1.438-0.642-1.438-1.431
					c0-0.758,0.646-1.399,1.438-1.399C94.546,63.246,95.192,63.887,95.192,64.645z M94.898,64.645c0-0.607-0.507-1.117-1.145-1.117
					c-0.639,0-1.146,0.51-1.146,1.117c0,0.638,0.507,1.148,1.146,1.148C94.392,65.794,94.898,65.283,94.898,64.645z"/>
				<path style="fill:#231F20;" d="M96.456,63.284h0.305l1.242,2.761h-0.307l-0.494-1.098h-1.188l-0.494,1.098h-0.307L96.456,63.284
					z M96.61,63.624l-0.476,1.053h0.947L96.61,63.624z"/>
				<path style="fill:#231F20;" d="M98.314,63.284h0.904c0.526,0,0.882,0.345,0.882,0.858c0,0.43-0.244,0.739-0.635,0.832
					l0.844,1.07h-0.375l-0.824-1.043h-0.514v1.043h-0.282V63.284z M99.219,64.73c0.352,0,0.588-0.235,0.588-0.588
					c0-0.352-0.232-0.588-0.588-0.588h-0.622v1.176H99.219z"/>
				<path style="fill:#231F20;" d="M100.659,63.284h0.735c1.001,0,1.403,0.395,1.403,1.381c0,0.986-0.402,1.38-1.403,1.38h-0.735
					V63.284z M101.395,65.775c0.792,0,1.109-0.318,1.109-1.11c0-0.793-0.317-1.11-1.109-1.11h-0.453v2.221H101.395z"/>
				<path style="fill:#231F20;" d="M103.265,63.284h0.282v2.761h-0.282V63.284z"/>
				<path style="fill:#231F20;" d="M104.166,63.284h0.34l1.729,2.374v-2.374h0.282v2.761h-0.34l-1.729-2.374v2.374h-0.282V63.284z"
					/>
				<path style="fill:#231F20;" d="M106.945,64.649c0-0.758,0.649-1.399,1.442-1.399c0.537,0,0.986,0.297,1.233,0.723h-0.317
					c-0.209-0.267-0.545-0.44-0.916-0.44c-0.639,0-1.148,0.51-1.148,1.117c0,0.639,0.51,1.148,1.148,1.148
					c0.406,0,0.762-0.209,0.967-0.526v-0.622h0.281v1.396h-0.281v-0.336c-0.256,0.231-0.596,0.371-0.967,0.371
					C107.595,66.08,106.945,65.438,106.945,64.649z"/>
				<path style="fill:#231F20;" d="M112.285,63.284c0.526,0,0.882,0.345,0.882,0.858c0,0.515-0.352,0.859-0.882,0.859h-0.622v1.043
					h-0.282v-2.761H112.285z M112.285,64.73c0.353,0,0.588-0.235,0.588-0.588c0-0.352-0.232-0.588-0.588-0.588h-0.622v1.176H112.285
					z"/>
				<path style="fill:#231F20;" d="M114.294,63.284h0.306l1.241,2.761h-0.306l-0.495-1.098h-1.187l-0.495,1.098h-0.306
					L114.294,63.284z M114.448,63.624l-0.476,1.053h0.948L114.448,63.624z"/>
				<path style="fill:#231F20;" d="M117.309,63.848c-0.058-0.182-0.243-0.324-0.452-0.324c-0.302,0-0.499,0.217-0.499,0.456
					c0,0.24,0.166,0.348,0.499,0.452c0.514,0.162,0.896,0.363,0.896,0.848c0,0.482-0.398,0.8-0.896,0.8
					c-0.46,0-0.836-0.31-0.89-0.738h0.294c0.054,0.267,0.298,0.456,0.596,0.456c0.336,0,0.604-0.197,0.604-0.518
					c0-0.256-0.167-0.396-0.604-0.53c-0.515-0.158-0.793-0.353-0.793-0.77c0-0.418,0.316-0.739,0.793-0.739
					c0.387,0,0.699,0.252,0.762,0.607H117.309z"/>
				<path style="fill:#231F20;" d="M119.337,63.848c-0.058-0.182-0.243-0.324-0.452-0.324c-0.302,0-0.499,0.217-0.499,0.456
					c0,0.24,0.166,0.348,0.499,0.452c0.514,0.162,0.896,0.363,0.896,0.848c0,0.482-0.397,0.8-0.896,0.8
					c-0.46,0-0.836-0.31-0.89-0.738h0.294c0.054,0.267,0.298,0.456,0.596,0.456c0.336,0,0.603-0.197,0.603-0.518
					c0-0.256-0.166-0.396-0.603-0.53c-0.515-0.158-0.793-0.353-0.793-0.77c0-0.418,0.317-0.739,0.793-0.739
					c0.387,0,0.699,0.252,0.761,0.607H119.337z"/>
			</g>
			<g>
				<path style="fill:#231F20;" d="M79.879,77.155H7.992c-0.308,0-0.557-0.25-0.557-0.558c0-0.308,0.249-0.557,0.557-0.557h71.887
					c0.308,0,0.558,0.249,0.558,0.557C80.437,76.905,80.187,77.155,79.879,77.155z"/>
			</g>
			<g>
				<path style="fill:#231F20;" d="M35.403,81.55H7.992c-0.308,0-0.557-0.25-0.557-0.557c0-0.308,0.249-0.558,0.557-0.558h27.411
					c0.308,0,0.557,0.25,0.557,0.558C35.96,81.3,35.711,81.55,35.403,81.55z"/>
			</g>
			<g>
				<path style="fill:#231F20;" d="M59.968,81.55H42.385c-0.307,0-0.557-0.25-0.557-0.557c0-0.308,0.25-0.558,0.557-0.558h17.583
					c0.308,0,0.557,0.25,0.557,0.558C60.524,81.3,60.275,81.55,59.968,81.55z"/>
			</g>
			<g>
				<path style="fill:#231F20;" d="M79.879,81.55H68.205c-0.308,0-0.557-0.25-0.557-0.557c0-0.308,0.249-0.558,0.557-0.558h11.674
					c0.308,0,0.558,0.25,0.558,0.558C80.437,81.3,80.187,81.55,79.879,81.55z"/>
			</g>
			<g>
				<path style="fill:#231F20;" d="M29.973,88.015H7.992c-0.308,0-0.557-0.249-0.557-0.557s0.249-0.557,0.557-0.557h21.98
					c0.308,0,0.558,0.249,0.558,0.557S30.28,88.015,29.973,88.015z"/>
			</g>
			<g>
				<path style="fill:#231F20;" d="M79.879,88.015H38.506c-0.308,0-0.557-0.249-0.557-0.557s0.249-0.557,0.557-0.557h41.373
					c0.308,0,0.558,0.249,0.558,0.557S80.187,88.015,79.879,88.015z"/>
			</g>
			<g>
				<path style="fill:#231F20;" d="M25.577,97.02H7.992c-0.308,0-0.557-0.249-0.557-0.557s0.249-0.557,0.557-0.557h17.585
					c0.307,0,0.557,0.249,0.557,0.557S25.884,97.02,25.577,97.02z"/>
			</g>
			<g>
				<path style="fill:#231F20;" d="M109.876,77.155H93.067c-0.309,0-0.558-0.25-0.558-0.558c0-0.308,0.249-0.557,0.558-0.557h16.809
					c0.308,0,0.557,0.249,0.557,0.557C110.433,76.905,110.184,77.155,109.876,77.155z"/>
			</g>
			<g>
				<path style="fill:#231F20;" d="M115.823,81.55H93.067c-0.309,0-0.558-0.25-0.558-0.557c0-0.308,0.249-0.558,0.558-0.558h22.756
					c0.308,0,0.557,0.25,0.557,0.558C116.38,81.3,116.131,81.55,115.823,81.55z"/>
			</g>
			<g>
				<path style="fill:#231F20;" d="M109.876,88.015H93.067c-0.309,0-0.558-0.249-0.558-0.557s0.249-0.557,0.558-0.557h16.809
					c0.308,0,0.557,0.249,0.557,0.557S110.184,88.015,109.876,88.015z"/>
			</g>
			<g>
				<path style="fill:#231F20;" d="M120.994,95.514H93.067c-0.309,0-0.558-0.25-0.558-0.558c0-0.308,0.249-0.557,0.558-0.557h27.927
					c0.308,0,0.558,0.249,0.558,0.557C121.552,95.264,121.302,95.514,120.994,95.514z"/>
			</g>
			<g>
				<path style="fill:#231F20;" d="M125.308,70.165H0.558C0.249,70.165,0,69.916,0,69.608s0.249-0.557,0.558-0.557h124.75
					c0.308,0,0.557,0.249,0.557,0.557S125.615,70.165,125.308,70.165z"/>
			</g>
		</g>
		<g>
			<g>
				<path style="fill:#231F20;" d="M23.305,31.95h0.64l2.597,5.776h-0.639l-1.036-2.298h-2.483l-1.036,2.298h-0.639L23.305,31.95z
					 M23.629,32.662l-0.995,2.2h1.983L23.629,32.662z"/>
				<path style="fill:#231F20;" d="M27.191,31.95h0.591v5.776h-0.591V31.95z"/>
				<path style="fill:#231F20;" d="M28.995,31.95h1.893c1.1,0,1.844,0.72,1.844,1.796c0,0.897-0.509,1.545-1.326,1.739l1.763,2.241
					h-0.784l-1.724-2.185h-1.075v2.185h-0.591V31.95z M30.889,34.975c0.735,0,1.229-0.493,1.229-1.229
					c0-0.736-0.486-1.23-1.229-1.23h-1.303v2.46H30.889z"/>
				<path style="fill:#231F20;" d="M37.719,32.515h-1.958V31.95h4.499v0.565h-1.95v5.211h-0.591V32.515z"/>
				<path style="fill:#231F20;" d="M40.989,31.95h0.59v5.776h-0.59V31.95z"/>
				<path style="fill:#231F20;" d="M48.061,36.351c-0.525,0.873-1.48,1.456-2.572,1.456c-1.659,0-3.019-1.344-3.019-2.993
					c0-1.587,1.359-2.93,3.019-2.93c1.084,0,2.03,0.583,2.557,1.425h-0.737c-0.437-0.51-1.084-0.834-1.819-0.834
					c-1.335,0-2.403,1.068-2.403,2.339c0,1.334,1.068,2.402,2.403,2.402c0.744,0,1.407-0.331,1.836-0.865H48.061z"/>
				<path style="fill:#231F20;" d="M49.033,31.95h0.591v2.726l2.508-2.726h0.736l-2.289,2.54l2.767,3.236h-0.736l-2.419-2.8
					l-0.566,0.631v2.169h-0.591V31.95z"/>
				<path style="fill:#231F20;" d="M53.994,31.95h3.35v0.565h-2.759v1.618h2.598V34.7h-2.598v2.46h2.759v0.566h-3.35V31.95z"/>
				<path style="fill:#231F20;" d="M59.951,32.515h-1.958V31.95h4.498v0.565h-1.95v5.211h-0.59V32.515z"/>
			</g>
			<g>
				<path style="fill:#231F20;" d="M102.851,36.086h0.986c0.409,0,0.68,0.263,0.68,0.657c0,0.205-0.093,0.383-0.235,0.502
					c0.259,0.147,0.437,0.422,0.437,0.743c0,0.515-0.352,0.858-0.881,0.858h-0.986V36.086z M103.837,37.13
					c0.231,0,0.387-0.155,0.387-0.387c0-0.231-0.155-0.387-0.387-0.387h-0.704v0.773H103.837z M103.837,38.577
					c0.352,0,0.587-0.236,0.587-0.588c0-0.353-0.235-0.588-0.587-0.588h-0.704v1.176H103.837z"/>
				<path style="fill:#231F20;" d="M107.906,37.448c0,0.788-0.646,1.43-1.438,1.43s-1.438-0.642-1.438-1.43
					c0-0.759,0.646-1.4,1.438-1.4S107.906,36.689,107.906,37.448z M107.612,37.448c0-0.608-0.506-1.118-1.145-1.118
					c-0.639,0-1.145,0.511-1.145,1.118c0,0.638,0.506,1.148,1.145,1.148C107.106,38.596,107.612,38.086,107.612,37.448z"/>
				<path style="fill:#231F20;" d="M109.17,36.086h0.306l1.241,2.761h-0.306l-0.495-1.099h-1.187l-0.495,1.099h-0.306L109.17,36.086
					z M109.324,36.426l-0.476,1.052h0.947L109.324,36.426z"/>
				<path style="fill:#231F20;" d="M111.028,36.086h0.904c0.526,0,0.882,0.344,0.882,0.858c0,0.429-0.243,0.738-0.634,0.831
					l0.843,1.071h-0.375l-0.824-1.044h-0.514v1.044h-0.282V36.086z M111.933,37.532c0.352,0,0.588-0.235,0.588-0.587
					c0-0.352-0.232-0.588-0.588-0.588h-0.622v1.175H111.933z"/>
				<path style="fill:#231F20;" d="M113.374,36.086h0.734c1.002,0,1.403,0.394,1.403,1.381c0,0.985-0.401,1.38-1.403,1.38h-0.734
					V36.086z M114.108,38.577c0.793,0,1.109-0.317,1.109-1.109c0-0.794-0.316-1.11-1.109-1.11h-0.452v2.22H114.108z"/>
				<path style="fill:#231F20;" d="M115.979,36.086h0.282v2.761h-0.282V36.086z"/>
				<path style="fill:#231F20;" d="M116.88,36.086h0.34l1.729,2.374v-2.374h0.283v2.761h-0.34l-1.728-2.375v2.375h-0.283V36.086z"/>
				<path style="fill:#231F20;" d="M119.659,37.451c0-0.757,0.65-1.399,1.442-1.399c0.537,0,0.986,0.298,1.233,0.723h-0.316
					c-0.209-0.267-0.545-0.44-0.917-0.44c-0.638,0-1.148,0.511-1.148,1.117c0,0.639,0.511,1.148,1.148,1.148
					c0.406,0,0.762-0.209,0.967-0.525v-0.623h0.282v1.396h-0.282V38.51c-0.255,0.232-0.595,0.372-0.967,0.372
					C120.31,38.882,119.659,38.241,119.659,37.451z"/>
				<path style="fill:#231F20;" d="M124.999,36.086c0.526,0,0.882,0.344,0.882,0.858c0,0.514-0.352,0.858-0.882,0.858h-0.622v1.044
					h-0.282v-2.761H124.999z M124.999,37.532c0.353,0,0.588-0.235,0.588-0.587c0-0.352-0.232-0.588-0.588-0.588h-0.622v1.175
					H124.999z"/>
				<path style="fill:#231F20;" d="M127.008,36.086h0.306l1.241,2.761h-0.306l-0.495-1.099h-1.187l-0.495,1.099h-0.306
					L127.008,36.086z M127.162,36.426l-0.476,1.052h0.948L127.162,36.426z"/>
				<path style="fill:#231F20;" d="M130.022,36.651c-0.058-0.182-0.243-0.325-0.452-0.325c-0.302,0-0.499,0.217-0.499,0.456
					c0,0.24,0.166,0.349,0.499,0.453c0.515,0.162,0.897,0.363,0.897,0.847c0,0.483-0.398,0.801-0.897,0.801
					c-0.46,0-0.835-0.31-0.89-0.739h0.294c0.054,0.267,0.298,0.456,0.596,0.456c0.336,0,0.603-0.196,0.603-0.517
					c0-0.256-0.167-0.396-0.603-0.53c-0.515-0.158-0.793-0.352-0.793-0.77c0-0.417,0.317-0.738,0.793-0.738
					c0.387,0,0.699,0.252,0.762,0.607H130.022z"/>
				<path style="fill:#231F20;" d="M132.051,36.651c-0.058-0.182-0.243-0.325-0.452-0.325c-0.302,0-0.499,0.217-0.499,0.456
					c0,0.24,0.166,0.349,0.499,0.453c0.514,0.162,0.896,0.363,0.896,0.847c0,0.483-0.397,0.801-0.896,0.801
					c-0.46,0-0.836-0.31-0.89-0.739h0.294c0.054,0.267,0.298,0.456,0.596,0.456c0.336,0,0.604-0.196,0.604-0.517
					c0-0.256-0.167-0.396-0.604-0.53c-0.515-0.158-0.793-0.352-0.793-0.77c0-0.417,0.317-0.738,0.793-0.738
					c0.387,0,0.699,0.252,0.762,0.607H132.051z"/>
			</g>
		</g>
		<g>
			<g>
				<path style="fill:#231F20;" d="M98.919,54.462H13.271c-0.308,0-0.558-0.25-0.558-0.558V42.411c0-0.308,0.25-0.557,0.558-0.557
					h85.647c0.309,0,0.558,0.249,0.558,0.557v11.494C99.477,54.212,99.228,54.462,98.919,54.462z M92.926,53.348h5.437v-10.38
					H13.828v10.38h6.547c0.093-0.069,0.208-0.109,0.332-0.109h27.41c0.124,0,0.239,0.04,0.332,0.109h6.317
					c0.094-0.069,0.208-0.109,0.332-0.109h17.584c0.124,0,0.239,0.04,0.332,0.109h7.572c0.094-0.069,0.208-0.109,0.333-0.109h11.673
					C92.718,53.239,92.833,53.279,92.926,53.348z M92.593,49.957H20.707c-0.308,0-0.557-0.249-0.557-0.558
					c0-0.307,0.249-0.557,0.557-0.557h71.886c0.309,0,0.558,0.25,0.558,0.557C93.15,49.708,92.901,49.957,92.593,49.957z"/>
			</g>
			<g>
				<path style="fill:#231F20;" d="M98.919,42.968H13.271c-0.308,0-0.558-0.25-0.558-0.558v-4.007
					c0-6.757,5.497-12.254,12.253-12.254h73.952c0.309,0,0.558,0.25,0.558,0.558v15.703C99.477,42.718,99.228,42.968,98.919,42.968z
					 M13.828,41.854h84.534v-14.59H24.967c-6.142,0-11.139,4.997-11.139,11.14V41.854z"/>
			</g>
			<g>
				<path style="fill:#231F20;" d="M126.326,85.232h-1.019c-0.308,0-0.557-0.249-0.557-0.558V65.602
					c0-6.143-4.997-11.14-11.139-11.14H98.919c-0.308,0-0.557-0.25-0.557-0.558V42.411c0-0.308,0.249-0.557,0.557-0.557h39.103
					c0.308,0,0.557,0.249,0.557,0.557v30.568C138.579,79.735,133.083,85.232,126.326,85.232z M125.864,84.118h0.462
					c6.143,0,11.14-4.996,11.14-11.139V42.968H99.477v10.38h5.972c0.094-0.069,0.208-0.109,0.333-0.109h22.756
					c0.309,0,0.558,0.249,0.558,0.557c0,0.307-0.249,0.557-0.558,0.557H118.47c4.347,1.885,7.395,6.217,7.395,11.25v1.6h7.845
					c0.308,0,0.558,0.25,0.558,0.557c0,0.309-0.25,0.558-0.558,0.558h-7.845V84.118z M122.59,49.957h-16.809
					c-0.308,0-0.558-0.249-0.558-0.558c0-0.307,0.25-0.557,0.558-0.557h16.809c0.308,0,0.557,0.25,0.557,0.557
					C123.146,49.708,122.897,49.957,122.59,49.957z"/>
			</g>
			<g>
				<path style="fill:#231F20;" d="M138.022,42.968H98.919c-0.308,0-0.557-0.25-0.557-0.558V26.708c0-0.308,0.249-0.558,0.557-0.558
					h27.407c6.757,0,12.253,5.497,12.253,12.254v4.007C138.579,42.718,138.33,42.968,138.022,42.968z M99.477,41.854h37.989v-3.45
					c0-6.143-4.997-11.14-11.14-11.14h-26.85V41.854z"/>
			</g>
		</g>
	</g>
</g>
</svg>