<?xml version="1.0" encoding="UTF-8" standalone="no"?>
<svg
   xmlns:dc="http://purl.org/dc/elements/1.1/"
   xmlns:cc="http://creativecommons.org/ns#"
   xmlns:rdf="http://www.w3.org/1999/02/22-rdf-syntax-ns#"
   xmlns:svg="http://www.w3.org/2000/svg"
   xmlns="http://www.w3.org/2000/svg"
   id="svg16"
   version="1.1"
   style="overflow:visible"
   viewBox="-240 -126 480 252"
   height="1008px"
   width="1920px">
  <metadata
     id="metadata22">
    <rdf:RDF>
      <cc:Work
         rdf:about="">
        <dc:format>image/svg+xml</dc:format>
        <dc:type
           rdf:resource="http://purl.org/dc/dcmitype/StillImage" />
      </cc:Work>
    </rdf:RDF>
  </metadata>
  <defs
     id="defs20" />
  <rect
     id="rect2"
     fill-opacity="0"
     fill="rgb(0,0,0)"
     height="252"
     width="480"
     y="-126"
     x="-240" />
  <svg
     id="svg14"
     version="1.1"
     y="-250"
     x="-250"
     viewBox="-250 -250 500 500"
     height="500"
     width="500"
     style="overflow:visible">
    <g
       style="fill:#ffffff;stroke-linejoin:round"
       id="g12">
      <path
         style="fill:#76b8f3;fill-opacity:1;stroke:none;stroke-linecap:butt;stroke-linejoin:round"
         id="path4"
         d="M -40.0365,54.2633 C -27.20739,75.940059 -12.47358,95.93822 7e-5,113.39972 26.293329,76.592599 62.653289,28.542219 69.95464,-22.834281 Z" />
      <path
         style="fill:#80c3fe;fill-opacity:1;stroke:none;stroke-linecap:butt;stroke-linejoin:round"
         id="path6"
         d="m 0.002099,-113.40196 c -39.36023,0 -71.2698,29.35016 -71.2698,72.4934 0,33.415549 13.870219,65.8343 31.233439,95.172 48.59316,-2.067261 86.707599,-40.37138 109.9721,-77.0973 0.85057,-5.984433 1.330615,-12.01249 1.330615,-18.07463 0,-43.14338 -31.906,-72.4934 -71.2663,-72.4934 z" />
      <path
         style="fill:none;stroke:#444444;stroke-width:11;stroke-linecap:butt;stroke-linejoin:round;stroke-opacity:1"
         id="path8"
         d="m 0,-113.4 c -39.36023,0 -71.2677,29.349179 -71.2677,72.4927 C -71.2677,17.197739 -29.35541,72.3058 0,113.4 29.35562,72.30601 71.2677,17.1976 71.2677,-40.9073 71.2677,-84.05068 39.36002,-113.4 0,-113.4 Z" />
      <path
         style="fill:#ffffff;fill-opacity:1;stroke:#444444;stroke-width:11;stroke-linecap:butt;stroke-linejoin:round;stroke-opacity:1"
         id="path10"
         d="m 33.406799,-44.584401 a 33.40645,33.922979 0 0 1 -33.40645,33.922979 33.40645,33.922979 0 0 1 -33.40645,-33.92298 33.40645,33.922979 0 0 1 33.40645,-33.92298 33.40645,33.922979 0 0 1 33.40645,33.922979 z" />
    </g>
  </svg>
</svg>
